<?xml version="1.0" standalone="no"?>
<!DOCTYPE svg PUBLIC "-//W3C//DTD SVG 20010904//EN"
 "http://www.w3.org/TR/2001/REC-SVG-20010904/DTD/svg10.dtd">
<svg version="1.0" xmlns="http://www.w3.org/2000/svg"
 width="2696.000000pt" height="2409.000000pt" viewBox="0 0 2696.000000 2409.000000"
 preserveAspectRatio="xMidYMid meet">

<g transform="translate(0.000000,2409.000000) scale(0.100000,-0.100000)"
fill="#000000" stroke="none">
<path d="M11160 21448 l0 -2403 -47 55 c-79 94 -254 263 -341 329 -277 210
-592 340 -962 398 -174 27 -554 24 -749 -6 -596 -91 -1105 -344 -1511 -751
-64 -63 -146 -153 -184 -200 -219 -274 -406 -629 -509 -971 -257 -847 -173
-1825 222 -2594 490 -955 1396 -1489 2461 -1452 357 13 644 84 940 232 213
107 354 210 548 399 l132 129 0 -296 0 -297 660 0 660 0 0 4915 0 4915 -660 0
-660 0 0 -2402z m-1198 -2817 c478 -98 846 -381 1063 -816 162 -323 237 -739
207 -1147 -22 -315 -78 -533 -197 -773 -190 -384 -497 -654 -884 -779 -711
-229 -1413 20 -1798 639 -151 242 -251 546 -284 862 -17 164 -7 453 21 613
136 777 620 1303 1305 1416 119 20 441 11 567 -15z"/>
<path d="M510 18515 l0 -4495 2480 0 2480 0 0 650 0 650 -1790 0 -1790 0 0
1410 0 1410 1735 0 1735 0 0 650 0 650 -1735 0 -1735 0 0 1135 0 1135 1790 0
1790 0 0 650 0 650 -2480 0 -2480 0 0 -4495z"/>
<path d="M16348 19840 c-526 -51 -961 -213 -1346 -502 -480 -361 -836 -882
-1007 -1477 -210 -732 -172 -1588 102 -2276 160 -402 372 -725 673 -1025 401
-401 853 -618 1440 -692 139 -17 605 -17 725 0 545 79 956 304 1318 722 l56
65 1 -450 c0 -247 -5 -526 -10 -620 -18 -314 -68 -532 -170 -740 -203 -418
-568 -665 -1073 -726 -137 -16 -433 -6 -558 20 -336 69 -587 222 -775 471
-123 162 -261 472 -311 698 l-18 82 -637 0 -638 0 0 -27 c0 -15 14 -94 31
-176 128 -626 430 -1204 830 -1592 491 -475 1124 -695 1934 -672 1038 30 1834
444 2275 1183 222 373 358 873 410 1504 27 330 30 681 30 3328 l0 2762 -660 0
-660 0 0 -307 0 -306 -112 115 c-129 131 -222 208 -358 298 -249 163 -545 276
-860 325 -121 19 -498 28 -632 15z m807 -1210 c297 -64 481 -165 705 -390 322
-322 477 -682 521 -1215 46 -557 -102 -1065 -423 -1451 -222 -266 -498 -434
-830 -505 -121 -26 -407 -36 -533 -20 -284 38 -536 143 -760 317 -160 124
-285 281 -394 494 -255 498 -303 1103 -130 1647 99 309 249 555 471 769 219
211 438 319 747 369 133 22 495 13 626 -15z"/>
<path d="M23595 19843 c-130 -10 -256 -27 -369 -49 -1092 -212 -1928 -1129
-2165 -2374 -44 -234 -56 -372 -55 -670 0 -304 11 -420 59 -670 112 -573 365
-1077 735 -1463 522 -547 1170 -788 2050 -764 882 24 1544 292 2059 833 156
163 331 394 434 571 l36 63 -22 14 c-12 7 -260 148 -551 311 -478 269 -531
296 -540 280 -45 -75 -167 -250 -221 -315 -249 -298 -537 -479 -872 -547 -126
-26 -536 -25 -673 0 -444 84 -755 335 -965 779 -88 187 -162 447 -181 641 l-7
67 2037 0 2036 0 0 178 c0 680 -110 1237 -336 1712 -431 900 -1278 1419 -2299
1408 -82 -1 -168 -3 -190 -5z m445 -1149 c347 -59 628 -240 817 -527 99 -149
178 -341 208 -501 l7 -36 -1315 0 -1315 0 20 71 c66 235 188 448 355 620 221
228 477 352 798 389 105 12 307 4 425 -16z"/>
<path fill="#ce2b2c" d="M480 8760 l0 -4630 12990 0 12990 0 0 4630 0 4630 -3200 0 -3199 0
-6 -32 c-80 -466 -172 -803 -300 -1102 -291 -680 -751 -1142 -1436 -1439 -237
-104 -424 -155 -819 -226 -298 -54 -378 -62 -616 -62 -312 0 -511 25 -841 106
-617 152 -1084 398 -1454 765 -302 300 -515 637 -703 1113 -98 248 -141 393
-176 595 -17 100 -37 204 -43 230 l-12 47 -6587 3 -6588 2 0 -4630z m22520
-575 l1715 -1797 3 1701 2 1701 375 0 375 0 0 -2612 -1 -2613 -77 81 c-42 45
-844 885 -1782 1868 l-1705 1787 -3 -1715 -2 -1716 -375 0 -375 0 0 2628 1
2627 67 -71 c37 -39 839 -880 1782 -1869z m-11488 1680 c382 -50 679 -210 908
-490 61 -75 154 -214 188 -281 l21 -42 -296 -173 c-163 -96 -300 -176 -305
-177 -4 -2 -15 14 -24 35 -29 69 -103 172 -168 236 -102 99 -223 163 -369 194
-108 22 -358 13 -452 -17 -260 -83 -408 -259 -431 -513 -20 -232 114 -431 386
-571 47 -24 227 -101 400 -171 173 -70 374 -156 445 -191 570 -280 872 -653
935 -1157 18 -139 8 -401 -20 -541 -46 -233 -146 -464 -275 -637 -125 -167
-325 -334 -514 -428 -251 -125 -519 -179 -839 -168 -254 8 -432 48 -618 136
-423 202 -754 633 -848 1106 -27 133 -34 206 -22 211 17 6 731 162 733 160 1
-1 7 -45 13 -97 41 -363 224 -642 498 -759 112 -47 214 -63 376 -58 117 4 155
10 221 32 243 80 422 254 500 486 37 111 46 172 46 305 0 319 -148 548 -464
724 -51 27 -245 115 -433 195 -390 165 -473 203 -601 279 -269 160 -458 356
-569 592 -71 149 -96 260 -101 453 -4 127 -2 183 12 260 98 546 507 944 1082
1051 141 27 152 28 325 29 83 1 196 -4 260 -13z m6713 5 c618 -58 1116 -281
1521 -684 122 -121 285 -322 284 -349 -1 -11 -577 -422 -592 -422 -3 0 -30 32
-59 70 -74 98 -277 298 -383 377 -221 165 -462 264 -736 303 -197 28 -513 18
-715 -21 -517 -102 -962 -445 -1190 -918 -234 -487 -272 -1056 -104 -1572 49
-153 168 -389 256 -514 38 -52 111 -139 163 -193 222 -232 481 -374 809 -444
119 -26 142 -27 391 -27 293 -1 371 10 557 75 375 131 725 459 871 817 36 89
75 235 86 320 l7 52 -611 0 -610 0 0 345 0 345 1015 0 1015 0 0 -77 c0 -309
-60 -707 -147 -978 -174 -546 -466 -943 -906 -1236 -312 -207 -660 -322 -1088
-360 -169 -15 -545 -6 -689 16 -497 76 -868 263 -1221 615 -392 391 -640 891
-731 1471 -30 195 -33 631 -5 809 93 596 332 1094 700 1463 396 395 963 654
1572 716 117 12 413 13 540 1z m-15305 -90 c732 -51 1229 -256 1655 -684 367
-369 591 -833 677 -1401 21 -142 18 -629 -5 -775 -115 -722 -481 -1280 -1095
-1669 -205 -130 -501 -250 -752 -305 -293 -64 -489 -76 -1282 -76 l-648 0 0
2460 0 2460 653 0 c358 0 717 -5 797 -10z m6008 -342 l-3 -353 -982 -3 -983
-2 0 -625 0 -625 955 0 955 0 0 -355 0 -355 -955 0 -955 0 0 -770 0 -770 983
-2 982 -3 3 -352 2 -353 -1360 0 -1360 0 0 2460 0 2460 1360 0 1360 0 -2 -352z
m5522 -2108 l0 -2460 -375 0 -375 0 0 2460 0 2460 375 0 375 0 0 -2460z"/>
<path fill="#ce2b2c" d="M2220 7330 l0 -1753 333 6 c223 4 369 11 446 22 561 79 945 306 1226
725 454 677 370 1669 -192 2250 -127 132 -240 213 -408 295 -303 147 -547 193
-1072 202 l-333 6 0 -1753z"/>
<path d="M1380 2209 c-409 -871 -772 -1644 -807 -1716 l-62 -133 267 0 267 0
176 388 176 387 694 3 695 2 169 -390 169 -390 269 0 c147 0 266 3 264 8 -5 7
-1487 3318 -1516 3386 l-17 38 -744 -1583z m969 -61 c127 -289 231 -529 231
-532 0 -3 -218 -6 -485 -6 -267 0 -485 3 -485 6 0 3 102 229 226 502 125 273
236 517 247 541 14 32 22 40 27 30 5 -8 112 -251 239 -541z"/>
<path d="M17510 2209 c-409 -871 -772 -1644 -807 -1716 l-62 -133 267 0 267 0
176 388 176 387 694 3 695 2 169 -390 169 -390 269 0 c147 0 266 3 264 8 -5 7
-1487 3318 -1516 3386 l-17 38 -744 -1583z m969 -61 c127 -289 231 -529 231
-532 0 -3 -218 -6 -485 -6 -267 0 -485 3 -485 6 0 3 102 229 226 502 125 273
236 517 247 541 14 32 22 40 27 30 5 -8 112 -251 239 -541z"/>
<path d="M4696 3650 c-322 -51 -569 -224 -694 -488 -118 -250 -107 -528 29
-759 48 -81 180 -211 279 -276 113 -72 165 -98 431 -210 270 -114 325 -141
406 -200 152 -112 224 -270 210 -460 -11 -146 -65 -265 -163 -357 -103 -96
-220 -140 -374 -140 -155 0 -284 51 -382 151 -93 95 -167 274 -168 402 0 31
-4 47 -13 47 -7 0 -115 -23 -240 -50 -125 -28 -231 -50 -234 -50 -11 0 6 -123
27 -205 71 -266 278 -528 510 -645 102 -51 186 -78 300 -95 393 -60 785 73
1001 341 139 172 210 354 228 587 35 431 -146 736 -571 962 -46 24 -195 89
-333 145 -137 56 -273 115 -302 131 -85 49 -159 123 -194 194 -30 61 -31 69
-27 157 5 115 37 187 111 253 96 87 210 121 380 113 118 -6 184 -27 278 -90
62 -41 153 -149 165 -195 3 -13 11 -23 17 -23 17 0 379 214 384 228 7 17 -64
133 -131 214 -120 144 -281 245 -471 294 -80 21 -129 26 -250 29 -82 2 -177 0
-209 -5z"/>
<path d="M7096 3650 c-322 -51 -569 -224 -694 -488 -118 -250 -107 -528 29
-759 48 -81 180 -211 279 -276 113 -72 165 -98 431 -210 270 -114 325 -141
406 -200 152 -112 224 -270 210 -460 -11 -146 -65 -265 -163 -357 -103 -96
-220 -140 -374 -140 -155 0 -284 51 -382 151 -93 95 -167 274 -168 402 0 31
-4 47 -13 47 -7 0 -115 -23 -240 -50 -125 -28 -231 -50 -234 -50 -11 0 6 -123
27 -205 71 -266 278 -528 510 -645 102 -51 186 -78 300 -95 393 -60 785 73
1001 341 139 172 210 354 228 587 35 431 -146 736 -571 962 -46 24 -195 89
-333 145 -137 56 -273 115 -302 131 -85 49 -159 123 -194 194 -30 61 -31 69
-27 157 5 115 37 187 111 253 96 87 210 121 380 113 118 -6 184 -27 278 -90
62 -41 153 -149 165 -195 3 -13 11 -23 17 -23 17 0 379 214 384 228 7 17 -64
133 -131 214 -120 144 -281 245 -471 294 -80 21 -129 26 -250 29 -82 2 -177 0
-209 -5z"/>
<path d="M10200 3649 c-993 -114 -1634 -1015 -1440 -2023 151 -783 826 -1326
1650 -1326 824 0 1499 543 1650 1326 135 700 -136 1386 -695 1756 -324 215
-756 314 -1165 267z m426 -464 c531 -92 896 -482 963 -1030 75 -617 -240
-1160 -775 -1334 -145 -46 -214 -56 -404 -56 -190 0 -259 10 -404 56 -479 156
-786 608 -786 1159 0 624 381 1099 965 1204 109 19 331 20 441 1z"/>
<path d="M14011 3649 c-357 -40 -639 -159 -887 -376 -327 -286 -525 -704 -553
-1168 -30 -499 98 -899 397 -1238 340 -386 810 -586 1327 -564 268 12 510 74
735 191 l85 44 3 297 2 297 -57 -52 c-229 -203 -529 -320 -822 -320 -517 0
-950 308 -1111 789 -102 304 -90 654 34 957 100 244 298 459 527 572 167 81
294 112 500 119 220 8 389 -25 575 -113 76 -36 227 -131 284 -180 78 -66 70
-91 70 234 l0 291 -67 38 c-146 81 -307 138 -478 169 -108 19 -441 27 -564 13z"/>
<path d="M25236 3650 c-322 -51 -569 -224 -694 -488 -118 -250 -107 -528 29
-759 48 -81 180 -211 279 -276 113 -72 165 -98 431 -210 270 -114 325 -141
406 -200 152 -112 224 -270 210 -460 -11 -146 -65 -265 -163 -357 -103 -96
-220 -140 -374 -140 -155 0 -284 51 -382 151 -93 95 -167 274 -168 402 0 31
-4 47 -13 47 -7 0 -115 -23 -240 -50 -125 -28 -231 -50 -234 -50 -11 0 6 -123
27 -205 71 -266 278 -528 510 -645 102 -51 186 -78 300 -95 393 -60 785 73
1001 341 139 172 210 354 228 587 35 431 -146 736 -571 962 -46 24 -195 89
-333 145 -137 56 -273 115 -302 131 -85 49 -159 123 -194 194 -30 61 -31 69
-27 157 5 115 37 187 111 253 96 87 210 121 380 113 118 -6 184 -27 278 -90
62 -41 153 -149 165 -195 3 -13 11 -23 17 -23 17 0 379 214 384 228 7 17 -64
133 -131 214 -120 144 -281 245 -471 294 -80 21 -129 26 -250 29 -82 2 -177 0
-209 -5z"/>
<path d="M15730 1980 l0 -1620 250 0 250 0 0 1620 0 1620 -250 0 -250 0 0
-1620z"/>
<path d="M19660 3365 l0 -235 370 0 370 0 0 -1385 0 -1385 250 0 250 0 0 1385
0 1385 370 0 370 0 0 235 0 235 -990 0 -990 0 0 -235z"/>
<path d="M22080 1980 l0 -1620 895 0 895 0 0 235 0 235 -645 0 -645 0 0 505 0
505 625 0 625 0 0 235 0 235 -625 0 -625 0 0 410 0 410 645 0 645 0 0 235 0
235 -895 0 -895 0 0 -1620z"/>
</g>
</svg>
